<svg width="292" height="51" viewBox="0 0 292 51" fill="none" xmlns="http://www.w3.org/2000/svg">
<g clip-path="url(#clip0)">
<path d="M6.49889 32.4651C5.22035 32.4651 4.0377 32.1765 2.95095 31.5992C1.86419 31.0219 0.979862 30.2003 0.297974 29.1345L1.70437 27.4692C2.94029 29.3788 4.54912 30.3335 6.53086 30.3335C9.30103 30.3335 10.6861 28.6238 10.6861 25.2044V11.0826H2.50346V8.951H13.0195V25.1045C13.0195 27.5469 12.4654 29.3899 11.3573 30.6333C10.2706 31.8545 8.6511 32.4651 6.49889 32.4651ZM33.6785 26.037H21.2126L18.5277 32.2653H16.0665L26.2948 8.951H28.6281L38.8566 32.2653H36.3635L33.6785 26.037ZM32.8154 24.0387L27.4455 11.5156L22.0756 24.0387H32.8154ZM60.0055 8.951L50.0968 32.2653H47.7635L37.8548 8.951H40.4118L48.9781 29.2011L57.6082 8.951H60.0055ZM63.2528 8.951H65.6181V32.2653H63.2528V8.951ZM88.72 30.1337V32.2653H72.8981V8.951H88.2406V11.0826H75.2634V19.3758H86.8342V21.4741H75.2634V30.1337H88.72ZM109.559 32.2653L104.444 24.7714C103.869 24.838 103.272 24.8713 102.654 24.8713H96.6453V32.2653H94.28V8.951H102.654C105.51 8.951 107.747 9.66153 109.367 11.0826C110.986 12.5036 111.796 14.4576 111.796 16.9445C111.796 18.7652 111.349 20.3084 110.454 21.574C109.58 22.8174 108.323 23.7167 106.682 24.2718L112.148 32.2653H109.559ZM102.591 22.773C104.807 22.773 106.501 22.2623 107.673 21.241C108.845 20.2196 109.431 18.7874 109.431 16.9445C109.431 15.0571 108.845 13.6139 107.673 12.6147C106.501 11.5933 104.807 11.0826 102.591 11.0826H96.6453V22.773H102.591ZM141.023 32.2653L135.909 24.7714C135.333 24.838 134.737 24.8713 134.119 24.8713H128.109V32.2653H125.744V8.951H134.119C136.974 8.951 139.211 9.66153 140.831 11.0826C142.45 12.5036 143.26 14.4576 143.26 16.9445C143.26 18.7652 142.813 20.3084 141.918 21.574C141.044 22.8174 139.787 23.7167 138.146 24.2718L143.612 32.2653H141.023ZM134.055 22.773C136.271 22.773 137.965 22.2623 139.137 21.241C140.309 20.2196 140.895 18.7874 140.895 16.9445C140.895 15.0571 140.309 13.6139 139.137 12.6147C137.965 11.5933 136.271 11.0826 134.055 11.0826H128.109V22.773H134.055ZM157.856 32.4651C154.958 32.4651 152.7 31.5992 151.08 29.8672C149.461 28.1353 148.651 25.6152 148.651 22.3068V8.951H151.016V22.2068C151.016 24.9157 151.602 26.9363 152.774 28.2686C153.946 29.6008 155.64 30.2669 157.856 30.2669C160.094 30.2669 161.799 29.6008 162.971 28.2686C164.143 26.9363 164.729 24.9157 164.729 22.2068V8.951H167.03V22.3068C167.03 25.6152 166.22 28.1353 164.601 29.8672C163.003 31.5992 160.754 32.4651 157.856 32.4651ZM197.395 8.951V32.2653H195.126V13.6139L186.336 29.301H185.217L176.427 13.7138V32.2653H174.157V8.951H176.107L185.824 26.2369L195.445 8.951H197.395ZM218.717 26.037H206.252L203.567 32.2653H201.105L211.334 8.951H213.667L223.895 32.2653H221.402L218.717 26.037ZM217.854 24.0387L212.484 11.5156L207.115 24.0387H217.854ZM233.957 24.2052V32.2653H231.624V24.2052L222.674 8.951H225.199L232.87 22.0403L240.541 8.951H242.907L233.957 24.2052ZM255.388 32.4651C253.172 32.4651 251.158 31.9544 249.347 30.933C247.557 29.8895 246.151 28.4684 245.128 26.6699C244.126 24.8713 243.626 22.8508 243.626 20.6081C243.626 18.3655 244.126 16.345 245.128 14.5464C246.151 12.7479 247.557 11.3379 249.347 10.3165C251.158 9.27296 253.172 8.75116 255.388 8.75116C257.604 8.75116 259.597 9.26185 261.365 10.2832C263.155 11.3046 264.562 12.7257 265.584 14.5464C266.607 16.345 267.119 18.3655 267.119 20.6081C267.119 22.8508 266.607 24.8824 265.584 26.7032C264.562 28.5017 263.155 29.9117 261.365 30.933C259.597 31.9544 257.604 32.4651 255.388 32.4651ZM255.388 30.2669C257.157 30.2669 258.755 29.8561 260.183 29.0346C261.61 28.1908 262.729 27.0362 263.539 25.5708C264.349 24.0831 264.753 22.4289 264.753 20.6081C264.753 18.7874 264.349 17.1443 263.539 15.6788C262.729 14.1912 261.61 13.0365 260.183 12.215C258.755 11.3712 257.157 10.9494 255.388 10.9494C253.619 10.9494 252.011 11.3712 250.562 12.215C249.134 13.0365 248.005 14.1912 247.173 15.6788C246.364 17.1443 245.959 18.7874 245.959 20.6081C245.959 22.4289 246.364 24.0831 247.173 25.5708C248.005 27.0362 249.134 28.1908 250.562 29.0346C252.011 29.8561 253.619 30.2669 255.388 30.2669ZM287.699 32.2653L282.585 24.7714C282.009 24.838 281.413 24.8713 280.795 24.8713H274.786V32.2653H272.42V8.951H280.795C283.65 8.951 285.888 9.66153 287.507 11.0826C289.127 12.5036 289.936 14.4576 289.936 16.9445C289.936 18.7652 289.489 20.3084 288.594 21.574C287.72 22.8174 286.463 23.7167 284.822 24.2718L290.288 32.2653H287.699ZM280.731 22.773C282.947 22.773 284.641 22.2623 285.813 21.241C286.985 20.2196 287.571 18.7874 287.571 16.9445C287.571 15.0571 286.985 13.6139 285.813 12.6147C284.641 11.5933 282.947 11.0826 280.731 11.0826H274.786V22.773H280.731ZM104.317 38.7877L101.488 47.5306H100.554L98.0963 40.0742L95.6272 47.5306H94.7042L91.8754 38.7877H92.7864L95.2076 46.3066L97.7128 38.7877H98.5398L101.009 46.3441L103.466 38.7877H104.317ZM111.877 46.7312V47.5306H105.944V38.7877H111.697V39.5871H106.831V42.697H111.17V43.4839H106.831V46.7312H111.877ZM119.248 43.0218C119.799 43.1467 120.223 43.3965 120.518 43.7712C120.822 44.1375 120.974 44.6121 120.974 45.195C120.974 45.9444 120.706 46.5231 120.171 46.9311C119.643 47.3308 118.86 47.5306 117.821 47.5306H113.962V38.7877H117.582C118.517 38.7877 119.24 38.9834 119.751 39.3748C120.271 39.7661 120.53 40.3198 120.53 41.0359C120.53 41.5188 120.415 41.931 120.183 42.2724C119.959 42.6054 119.647 42.8552 119.248 43.0218ZM114.849 39.5496V42.722H117.522C118.201 42.722 118.724 42.5888 119.092 42.3223C119.46 42.0476 119.643 41.6521 119.643 41.1358C119.643 40.6196 119.46 40.2282 119.092 39.9618C118.724 39.687 118.201 39.5496 117.522 39.5496H114.849ZM117.809 46.7687C118.561 46.7687 119.128 46.6355 119.512 46.369C119.895 46.1026 120.087 45.6863 120.087 45.1201C120.087 44.0293 119.328 43.4839 117.809 43.4839H114.849V46.7687H117.809ZM126.135 38.7877H129.551C130.438 38.7877 131.222 38.9751 131.901 39.3498C132.58 39.7161 133.107 40.2324 133.483 40.8985C133.859 41.5563 134.046 42.3099 134.046 43.1592C134.046 44.0085 133.859 44.7662 133.483 45.4323C133.107 46.0901 132.58 46.6063 131.901 46.981C131.222 47.3474 130.438 47.5306 129.551 47.5306H126.135V38.7877ZM129.503 46.7312C130.239 46.7312 130.882 46.5814 131.433 46.2816C131.985 45.9735 132.412 45.553 132.716 45.0201C133.019 44.4789 133.171 43.8586 133.171 43.1592C133.171 42.4597 133.019 41.8436 132.716 41.3107C132.412 40.7694 131.985 40.349 131.433 40.0492C130.882 39.7411 130.239 39.5871 129.503 39.5871H127.022V46.7312H129.503ZM141.972 46.7312V47.5306H136.038V38.7877H141.792V39.5871H136.925V42.697H141.264V43.4839H136.925V46.7312H141.972ZM150.915 38.7877L147.2 47.5306H146.325L142.609 38.7877H143.568L146.78 46.3815L150.016 38.7877H150.915ZM158.066 46.7312V47.5306H152.133V38.7877H157.886V39.5871H153.02V42.697H157.359V43.4839H153.02V46.7312H158.066ZM160.151 38.7877H161.038V46.7312H165.737V47.5306H160.151V38.7877ZM170.713 47.6055C169.882 47.6055 169.127 47.414 168.448 47.031C167.777 46.6397 167.249 46.1068 166.866 45.4323C166.49 44.7579 166.302 44.0001 166.302 43.1592C166.302 42.3182 166.49 41.5605 166.866 40.886C167.249 40.2116 167.777 39.6828 168.448 39.2998C169.127 38.9085 169.882 38.7128 170.713 38.7128C171.544 38.7128 172.292 38.9043 172.955 39.2873C173.626 39.6703 174.154 40.2032 174.537 40.886C174.921 41.5605 175.112 42.3182 175.112 43.1592C175.112 44.0001 174.921 44.762 174.537 45.4448C174.154 46.1193 173.626 46.648 172.955 47.031C172.292 47.414 171.544 47.6055 170.713 47.6055ZM170.713 46.7812C171.377 46.7812 171.976 46.6272 172.511 46.3191C173.047 46.0027 173.466 45.5697 173.77 45.0201C174.074 44.4623 174.225 43.8419 174.225 43.1592C174.225 42.4764 174.074 41.8602 173.77 41.3107C173.466 40.7528 173.047 40.3198 172.511 40.0117C171.976 39.6953 171.377 39.5371 170.713 39.5371C170.05 39.5371 169.447 39.6953 168.904 40.0117C168.368 40.3198 167.945 40.7528 167.633 41.3107C167.329 41.8602 167.177 42.4764 167.177 43.1592C167.177 43.8419 167.329 44.4623 167.633 45.0201C167.945 45.5697 168.368 46.0027 168.904 46.3191C169.447 46.6272 170.05 46.7812 170.713 46.7812ZM180.241 38.7877C181.312 38.7877 182.151 39.0542 182.758 39.5871C183.366 40.12 183.669 40.8527 183.669 41.7853C183.669 42.7179 183.366 43.4506 182.758 43.9835C182.151 44.5081 181.312 44.7704 180.241 44.7704H177.988V47.5306H177.101V38.7877H180.241ZM180.217 43.9585C181.048 43.9585 181.684 43.7712 182.123 43.3965C182.563 43.0134 182.782 42.4764 182.782 41.7853C182.782 41.0775 182.563 40.5363 182.123 40.1616C181.684 39.7786 181.048 39.5871 180.217 39.5871H177.988V43.9585H180.217ZM191.52 46.7312V47.5306H185.587V38.7877H191.341V39.5871H186.474V42.697H190.813V43.4839H186.474V46.7312H191.52ZM199.335 47.5306L197.417 44.7204C197.201 44.7454 196.977 44.7579 196.746 44.7579H194.492V47.5306H193.605V38.7877H196.746C197.816 38.7877 198.656 39.0542 199.263 39.5871C199.87 40.12 200.174 40.8527 200.174 41.7853C200.174 42.4681 200.006 43.0468 199.67 43.5214C199.343 43.9877 198.871 44.3249 198.256 44.533L200.306 47.5306H199.335ZM196.722 43.971C197.553 43.971 198.188 43.7795 198.628 43.3965C199.067 43.0134 199.287 42.4764 199.287 41.7853C199.287 41.0775 199.067 40.5363 198.628 40.1616C198.188 39.7786 197.553 39.5871 196.722 39.5871H194.492V43.971H196.722Z" fill="#E5F5FA"/>
<path d="M0 42L84.2371 41.8062" stroke="#E5F5FA" stroke-width="5"/>
<path d="M210.426 41.8062L290 42" stroke="#E5F5FA" stroke-width="5"/>
</g>
<defs>
<clipPath id="clip0">
<rect width="292" height="51" fill="white"/>
</clipPath>
</defs>
</svg>
